<svg version="1.1" id="Layer_1" xmlns="http://www.w3.org/2000/svg" xmlns:xlink="http://www.w3.org/1999/xlink" x="0px" y="0px"
	 width="100%" viewBox="0 0 500 500" enable-background="new 0 0 500 500" xml:space="preserve">
<path fill="#0A192F" opacity="1.000000" stroke="none" 
	d="
M330.000000,501.000000 
	C277.645782,501.000000 225.291550,501.000000 172.511566,500.533020 
	C172.085831,493.158356 172.085831,486.250702 172.085831,478.883392 
	C122.027916,478.883392 72.828415,478.883392 22.982273,478.883392 
	C22.982273,429.075073 22.982273,379.749146 22.982273,330.000000 
	C15.227755,330.000000 8.113877,330.000000 1.000000,330.000000 
	C1.000000,277.645782 1.000000,225.291550 1.466348,172.519577 
	C8.841240,172.101837 15.749783,172.101837 23.285561,172.101837 
	C23.285561,121.930008 23.285561,72.606529 23.285561,22.810562 
	C73.142235,22.810562 122.346176,22.810562 172.000000,22.810562 
	C172.000000,15.226960 172.000000,8.113480 172.000000,1.000000 
	C224.354233,1.000000 276.708466,1.000000 329.487640,1.466940 
	C329.912598,8.841414 329.912598,15.748948 329.912598,23.117622 
	C379.970001,23.117622 429.168945,23.117622 479.015808,23.117622 
	C479.015808,72.927101 479.015808,122.252655 479.015808,172.000000 
	C486.771851,172.000000 493.885925,172.000000 501.000000,172.000000 
	C501.000000,224.354233 501.000000,276.708466 500.533630,329.480408 
	C493.158417,329.898163 486.249542,329.898163 478.712433,329.898163 
	C478.712433,380.068268 478.712433,429.391602 478.712433,479.188568 
	C428.855255,479.188568 379.651703,479.188568 330.000000,479.188568 
	C330.000000,486.772919 330.000000,493.886475 330.000000,501.000000 
M287.551453,193.008041 
	C292.328949,193.008041 297.106445,193.008041 302.267609,193.008041 
	C296.477570,236.157669 290.742249,278.899323 284.984406,321.808838 
	C294.370789,321.808838 303.143829,321.808838 312.287109,321.808838 
	C318.062561,278.849548 323.819122,236.030609 329.568909,193.262024 
	C342.242950,193.262024 354.506104,193.262024 367.354736,193.262024 
	C368.269775,186.697830 369.222565,179.862946 370.210510,172.775620 
	C335.594421,172.775620 301.512482,172.775620 267.178558,172.775620 
	C266.117310,179.753128 265.084137,186.546112 264.097137,193.035522 
	C271.972443,193.035522 279.272461,193.035522 287.551453,193.008041 
M175.488098,322.003906 
	C179.609360,322.003906 183.730621,322.003906 188.006668,322.003906 
	C193.826111,278.740662 199.586197,235.918808 205.323196,193.268478 
	C218.089767,193.268478 230.369659,193.268478 243.097672,193.268478 
	C244.027481,186.659821 244.989716,179.820663 245.976852,172.804626 
	C211.395004,172.804626 177.322235,172.804626 142.882736,172.804626 
	C141.852463,179.781891 140.851669,186.559631 139.861603,193.264709 
	C153.005920,193.264709 165.410080,193.264709 177.990219,193.264709 
	C172.238724,236.097992 166.508377,278.773804 160.703598,322.003906 
	C165.582199,322.003906 170.038895,322.003906 175.488098,322.003906 
z"/>
<path fill="#00A28E" opacity="1.000000" stroke="none" 
	d="
M171.531342,1.000000 
	C172.000000,8.113480 172.000000,15.226960 172.000000,22.810562 
	C122.346176,22.810562 73.142235,22.810562 23.285561,22.810562 
	C23.285561,72.606529 23.285561,121.930008 23.285561,172.101837 
	C15.749783,172.101837 8.841240,172.101837 1.466348,172.050919 
	C1.000000,115.072983 1.000000,58.145969 1.000000,1.000000 
	C57.687374,1.000000 114.375031,1.000000 171.531342,1.000000 
z"/>
<path fill="#00A28E" opacity="1.000000" stroke="none" 
	d="
M501.000000,171.531342 
	C493.885925,172.000000 486.771851,172.000000 479.015808,172.000000 
	C479.015808,122.252655 479.015808,72.927101 479.015808,23.117622 
	C429.168945,23.117622 379.970001,23.117622 329.912598,23.117622 
	C329.912598,15.748948 329.912598,8.841414 329.956299,1.466940 
	C386.927002,1.000000 443.854004,1.000000 501.000000,1.000000 
	C501.000000,57.687374 501.000000,114.375031 501.000000,171.531342 
z"/>
<path fill="#00A28E" opacity="1.000000" stroke="none" 
	d="
M1.000000,330.468658 
	C8.113877,330.000000 15.227755,330.000000 22.982273,330.000000 
	C22.982273,379.749146 22.982273,429.075073 22.982273,478.883392 
	C72.828415,478.883392 122.027916,478.883392 172.085831,478.883392 
	C172.085831,486.250702 172.085831,493.158356 172.042908,500.533020 
	C115.072998,501.000000 58.145988,501.000000 1.000000,501.000000 
	C1.000000,444.312622 1.000000,387.624969 1.000000,330.468658 
z"/>
<path fill="#00A28E" opacity="1.000000" stroke="none" 
	d="
M330.468658,501.000000 
	C330.000000,493.886475 330.000000,486.772919 330.000000,479.188568 
	C379.651703,479.188568 428.855255,479.188568 478.712433,479.188568 
	C478.712433,429.391602 478.712433,380.068268 478.712433,329.898163 
	C486.249542,329.898163 493.158417,329.898163 500.533630,329.949097 
	C501.000000,386.927002 501.000000,443.854004 501.000000,501.000000 
	C444.312622,501.000000 387.624969,501.000000 330.468658,501.000000 
z"/>
<path fill="#D7D7D7" opacity="1.000000" stroke="none" 
	d="
M287.061951,193.021790 
	C279.272461,193.035522 271.972443,193.035522 264.097137,193.035522 
	C265.084137,186.546112 266.117310,179.753128 267.178558,172.775620 
	C301.512482,172.775620 335.594421,172.775620 370.210510,172.775620 
	C369.222565,179.862946 368.269775,186.697830 367.354736,193.262024 
	C354.506104,193.262024 342.242950,193.262024 329.568909,193.262024 
	C323.819122,236.030609 318.062561,278.849548 312.287109,321.808838 
	C303.143829,321.808838 294.370789,321.808838 284.984406,321.808838 
	C290.742249,278.899323 296.477570,236.157669 302.267609,193.008041 
	C297.106445,193.008041 292.328949,193.008041 287.061951,193.021790 
z"/>
<path fill="#D7D7D7" opacity="1.000000" stroke="none" 
	d="
M174.991852,322.003906 
	C170.038895,322.003906 165.582199,322.003906 160.703598,322.003906 
	C166.508377,278.773804 172.238724,236.097992 177.990219,193.264709 
	C165.410080,193.264709 153.005920,193.264709 139.861603,193.264709 
	C140.851669,186.559631 141.852463,179.781891 142.882736,172.804626 
	C177.322235,172.804626 211.395004,172.804626 245.976852,172.804626 
	C244.989716,179.820663 244.027481,186.659821 243.097672,193.268478 
	C230.369659,193.268478 218.089767,193.268478 205.323196,193.268478 
	C199.586197,235.918808 193.826111,278.740662 188.006668,322.003906 
	C183.730621,322.003906 179.609360,322.003906 174.991852,322.003906 
z"/>
</svg>